<?xml version="1.0" standalone="no"?>
<!DOCTYPE svg PUBLIC "-//W3C//DTD SVG 20010904//EN"
 "http://www.w3.org/TR/2001/REC-SVG-20010904/DTD/svg10.dtd">
<svg version="1.0" xmlns="http://www.w3.org/2000/svg"
 width="272.000000pt" height="272.000000pt" viewBox="0 0 272.000000 272.000000"
 preserveAspectRatio="xMidYMid meet">

<g transform="translate(0.000000,272.000000) scale(0.100000,-0.100000)"
fill="#000000" stroke="none">
<path d="M0 1360 l0 -1360 1360 0 1360 0 0 1360 0 1360 -1360 0 -1360 0 0
-1360z m1660 1024 c21 -21 25 -33 25 -88 0 -117 -49 -177 -505 -612 -528 -504
-608 -612 -555 -751 25 -64 133 -172 208 -207 251 -118 596 -35 828 198 35 35
79 90 98 121 63 105 109 267 125 443 5 59 4 65 -20 87 -36 33 -129 67 -186 67
-93 0 -168 -68 -168 -153 0 -58 19 -84 79 -104 63 -21 86 -46 86 -97 0 -101
-145 -141 -240 -66 -71 56 -86 188 -35 297 43 90 140 184 245 236 77 39 83 40
180 40 83 0 108 -4 145 -22 49 -24 116 -85 194 -173 70 -80 112 -110 157 -110
78 0 102 70 49 144 -17 23 -33 59 -37 79 -5 31 -1 40 25 67 63 62 162 26 183
-67 27 -121 -66 -264 -217 -335 -114 -53 -194 -42 -296 43 -26 22 -48 39 -51
39 -2 0 -7 -42 -11 -94 -17 -242 -109 -453 -275 -629 -115 -122 -254 -205
-416 -248 -108 -29 -339 -33 -432 -7 -115 32 -192 77 -279 163 -129 127 -186
270 -188 470 0 78 5 117 23 175 79 255 281 491 489 571 104 40 263 36 313 -7
13 -12 30 1 131 104 140 143 173 194 164 258 -3 24 -9 63 -12 87 -5 34 -2 47
16 69 40 51 114 56 160 12z"/>
<path d="M809 1711 c-61 -30 -104 -69 -147 -129 -76 -109 -116 -237 -110 -356
l3 -68 70 85 c39 46 138 155 220 242 83 86 153 163 158 170 33 58 -108 99
-194 56z"/>
</g>
</svg>
