<?xml version="1.0" standalone="no"?>
<!DOCTYPE svg PUBLIC "-//W3C//DTD SVG 20010904//EN"
 "http://www.w3.org/TR/2001/REC-SVG-20010904/DTD/svg10.dtd">
<svg version="1.0" xmlns="http://www.w3.org/2000/svg"
 width="326.000000pt" height="326.000000pt" viewBox="0 0 326.000000 326.000000"
 preserveAspectRatio="xMidYMid meet">

<g transform="translate(0.000000,326.000000) scale(0.100000,-0.100000)"
fill="#000000" stroke="none">
<path d="M1872 2730 c-48 -29 -58 -59 -44 -129 7 -31 12 -71 12 -87 0 -55 -71
-146 -252 -321 l-43 -43 -49 25 c-86 44 -227 30 -354 -34 -206 -104 -412 -377
-461 -609 -15 -74 -13 -224 4 -307 49 -235 242 -434 475 -490 198 -47 436 -17
625 77 143 72 271 190 372 344 96 147 143 287 164 488 6 61 13 113 15 115 2 2
25 -16 51 -39 26 -24 68 -52 92 -63 171 -76 447 117 445 313 0 88 -48 150
-114 150 -34 0 -80 -29 -91 -58 -13 -35 -5 -64 38 -134 33 -53 34 -59 23 -92
-13 -41 -35 -56 -80 -56 -49 0 -67 13 -195 144 -150 154 -198 181 -320 181
-96 0 -158 -20 -246 -76 -119 -77 -205 -188 -229 -294 -32 -142 51 -265 176
-265 88 0 143 53 130 123 -8 42 -28 61 -83 77 -64 19 -88 51 -88 114 0 99 87
172 196 164 64 -5 182 -57 199 -88 26 -48 -32 -351 -91 -475 -124 -263 -437
-456 -744 -457 -196 -2 -361 78 -454 219 -115 174 -50 274 561 854 360 343
443 431 492 523 74 139 -15 277 -132 206z m-617 -690 c19 0 75 -49 75 -66 0
-8 -86 -105 -191 -217 -105 -111 -212 -230 -237 -264 -26 -34 -51 -62 -56 -63
-16 0 1 211 22 271 67 189 179 314 303 338 24 5 50 7 57 5 8 -2 20 -4 27 -4z"/>
</g>
</svg>
